<?xml version="1.0" standalone="no"?>
<!DOCTYPE svg PUBLIC "-//W3C//DTD SVG 20010904//EN"
 "http://www.w3.org/TR/2001/REC-SVG-20010904/DTD/svg10.dtd">
<svg version="1.0" xmlns="http://www.w3.org/2000/svg"
 width="365.000000pt" height="365.000000pt" viewBox="0 0 365.000000 365.000000"
 preserveAspectRatio="xMidYMid meet">
<metadata>
Created by potrace 1.11, written by Peter Selinger 2001-2013
</metadata>
<g transform="translate(0.000000,365.000000) scale(0.100000,-0.100000)"
fill="#000000" stroke="none">
<path d="M1964 3622 c-47 -32 -65 -52 -100 -117 -15 -27 -33 -56 -40 -62 -7
-7 -20 -33 -30 -59 -15 -39 -19 -44 -29 -31 -14 19 -64 41 -85 38 -29 -5 -67
-76 -75 -140 -3 -23 -14 -62 -25 -86 -11 -24 -26 -68 -34 -97 -8 -29 -19 -65
-24 -79 -6 -14 -13 -43 -16 -65 -13 -83 -20 -99 -72 -161 -30 -35 -55 -68 -55
-73 -5 -36 -5 -56 0 -65 9 -16 9 -248 0 -265 -5 -9 0 -27 12 -47 19 -30 19
-35 6 -65 -21 -46 -27 -77 -16 -84 12 -7 11 -115 -1 -134 -5 -9 -5 -19 1 -27
12 -14 13 -79 3 -140 -4 -28 -3 -43 4 -43 6 0 9 -14 7 -32 -2 -18 -4 -52 -4
-74 -1 -38 -3 -41 -25 -37 -21 4 -25 1 -31 -39 -8 -44 -53 -178 -103 -305 -20
-51 -39 -81 -63 -99 -142 -112 -306 -443 -336 -681 -22 -172 10 -520 51 -545
23 -15 66 -6 241 51 287 94 406 151 643 307 258 170 344 240 416 342 33 46 37
57 31 91 -4 24 -2 42 4 46 15 8 14 41 -1 65 -11 17 -9 27 9 59 16 28 19 41 10
44 -6 2 4 7 24 11 50 9 89 47 90 88 7 141 5 147 -42 192 -63 58 -83 94 -80
139 2 43 -12 67 -40 67 -23 0 -22 -5 -4 58 18 58 30 66 40 23 9 -41 71 -110
83 -92 5 7 6 27 3 45 -12 57 -4 140 22 216 39 116 52 141 99 190 44 47 160
149 184 163 38 22 74 98 104 223 17 71 41 163 52 204 12 41 21 86 21 100 -1
14 3 33 9 44 6 10 11 64 12 118 1 90 -1 100 -20 113 -58 38 -132 22 -172 -38
-28 -40 -83 -199 -97 -279 -4 -20 -18 -46 -31 -59 l-24 -22 -1 44 c0 24 -2 55
-3 69 -2 14 7 78 20 142 13 64 26 134 30 155 3 21 17 76 31 123 15 47 28 90
29 95 32 112 35 135 31 209 -4 79 -10 116 -22 136 -12 20 -66 41 -88 34 -51
-15 -86 -37 -91 -57 -3 -12 -12 -31 -20 -42 -14 -19 -15 -18 -6 12 13 50 6
151 -12 170 -27 26 -107 24 -151 -4 -31 -19 -47 -44 -93 -139 -31 -64 -58
-114 -60 -111 -2 2 7 35 19 73 24 69 27 128 8 162 -5 9 -27 27 -49 39 l-39 22
-39 -27z m343 -2423 c11 -14 10 -21 -5 -38 -13 -17 -24 -20 -49 -15 -30 6 -31
8 -35 66 -1 33 -1 61 1 64 5 4 72 -53 88 -77z"/>
</g>
</svg>
